<svg width="29" height="29" viewBox="0 0 29 29" fill="none" xmlns="http://www.w3.org/2000/svg">
<path opacity="0.4" d="M21.2667 0H7.73333C2.79689 0 0 2.79689 0 7.73333V21.2667C0 26.1902 2.784 29 7.73333 29H21.2667C26.2031 29 29 26.1902 29 21.2667V7.73333C29 2.79689 26.2031 0 21.2667 0Z" fill="#545FDD"/>
<path d="M19.3146 15.527H15.5868V19.2226C15.5868 19.8176 15.1002 20.3 14.5 20.3C13.8997 20.3 13.4131 19.8176 13.4131 19.2226V15.527H9.68529C9.12541 15.4696 8.69995 15.0019 8.69995 14.4439C8.69995 13.8859 9.12541 13.4182 9.68529 13.3607H13.4015V9.67675C13.4594 9.12172 13.9312 8.69995 14.4941 8.69995C15.057 8.69995 15.5288 9.12172 15.5868 9.67675V13.3607H19.3146C19.8745 13.4182 20.3 13.8859 20.3 14.4439C20.3 15.0019 19.8745 15.4696 19.3146 15.527Z" fill="#545FDD"/>
</svg>
