<svg width="18" height="20" viewBox="0 0 18 20" fill="none" xmlns="http://www.w3.org/2000/svg">
<path opacity="0.4" d="M16.6434 7.48827C16.6434 7.55626 16.1105 14.2971 15.806 17.134C15.6154 18.8749 14.4931 19.9309 12.8096 19.9609C11.5161 19.9899 10.2498 19.9999 9.00398 19.9999C7.6813 19.9999 6.3878 19.9899 5.13223 19.9609C3.50514 19.9219 2.38184 18.8449 2.20094 17.134C1.88778 14.2871 1.36454 7.55626 1.35482 7.48827C1.34509 7.28327 1.41123 7.08828 1.54544 6.93028C1.67771 6.78429 1.86833 6.69629 2.06868 6.69629H15.9393C16.1387 6.69629 16.3196 6.78429 16.4625 6.93028C16.5958 7.08828 16.6629 7.28327 16.6434 7.48827Z" fill="#545FDD"/>
<path d="M18.0001 3.97688C18.0001 3.56589 17.6762 3.2439 17.2872 3.2439H14.3715C13.7782 3.2439 13.2628 2.82191 13.1305 2.22693L12.9671 1.49795C12.7386 0.616981 11.9498 0 11.0648 0H6.93628C6.04153 0 5.26056 0.616981 5.02326 1.54595L4.87057 2.22793C4.73733 2.82191 4.22187 3.2439 3.62958 3.2439H0.713857C0.323862 3.2439 0 3.56589 0 3.97688V4.35687C0 4.75786 0.323862 5.08985 0.713857 5.08985H17.2872C17.6762 5.08985 18.0001 4.75786 18.0001 4.35687V3.97688Z" fill="#545FDD"/>
</svg>
