<svg width="20" height="20" viewBox="0 0 20 20" fill="none" xmlns="http://www.w3.org/2000/svg">
<path opacity="0.4" d="M14.6643 19.9897H5.33488C3.88835 20.0796 2.46781 19.5781 1.3989 18.6011C0.421899 17.5312 -0.0795886 16.1107 0.0103195 14.6652V5.33482C-0.0795886 3.88932 0.4209 2.46878 1.3979 1.39889C2.46781 0.421895 3.88835 -0.0795878 5.33488 0.0103194H14.6643C16.1089 -0.0795878 17.5284 0.420896 18.5973 1.39789C19.5733 2.46878 20.0758 3.88832 19.9899 5.33482V14.6652C20.0788 16.1107 19.5783 17.5312 18.6013 18.6011C17.5314 19.5781 16.1109 20.0796 14.6643 19.9897Z" fill="#545FDD"/>
<path d="M15.0545 8.39768L8.50177 14.983C8.16099 15.3148 7.7131 15.5001 7.24574 15.5001H4.95762C4.83105 15.5001 4.71421 15.4513 4.62658 15.3635C4.53895 15.2757 4.5 15.1587 4.5 15.0318L4.55842 12.7196C4.56816 12.2611 4.75315 11.8318 5.07446 11.5099L9.71885 6.85622C9.79675 6.77817 9.93306 6.77817 10.011 6.85622L11.6399 8.47866C11.747 8.585 11.9028 8.65427 12.0683 8.65427C12.4286 8.65427 12.7109 8.36159 12.7109 8.01037C12.7109 7.83476 12.6428 7.67866 12.5357 7.56159C12.5065 7.52256 10.9554 5.97817 10.9554 5.97817C10.858 5.88061 10.858 5.71476 10.9554 5.6172L11.6078 4.95378C12.2114 4.3489 13.1851 4.3489 13.7888 4.95378L15.0545 6.22207C15.6485 6.81719 15.6485 7.7928 15.0545 8.39768Z" fill="#545FDD"/>
</svg>
