<svg width="167" height="149" viewBox="0 0 167 149" fill="none" xmlns="http://www.w3.org/2000/svg">
<rect width="157.693" height="14.1003" transform="matrix(0.973849 -0.227194 0.383821 0.923407 3.84619 85.4241)" fill="url(#paint0_linear_10_418)" fill-opacity="0.43"/>
<path d="M40.6843 49.1923L39.748 56.5655H29.7415V89.745H20.1446V56.5655H9.66997V49.1923H40.6843ZM66.1532 80.7333C66.1532 81.9036 66.3092 82.7619 66.6213 83.3081C66.9724 83.8542 67.5186 84.2638 68.2598 84.5369L66.3287 90.5642C64.4172 90.4082 62.8567 89.9986 61.6473 89.3354C60.438 88.6332 59.5017 87.5408 58.8385 86.0584C56.8099 89.1793 53.6889 90.7398 49.4757 90.7398C46.3937 90.7398 43.936 89.8425 42.1024 88.048C40.2689 86.2534 39.3521 83.9127 39.3521 81.0259C39.3521 77.6318 40.6005 75.0376 43.0972 73.243C45.594 71.4485 49.2026 70.5512 53.923 70.5512H57.083V69.2053C57.083 67.3718 56.6928 66.1234 55.9126 65.4602C55.1324 64.758 53.767 64.4069 51.8164 64.4069C50.8021 64.4069 49.5732 64.5629 48.1298 64.875C46.6863 65.1481 45.2039 65.5382 43.6824 66.0454L41.5758 59.9595C43.5264 59.2183 45.516 58.6526 47.5446 58.2625C49.6122 57.8724 51.5238 57.6773 53.2793 57.6773C57.7267 57.6773 60.9841 58.5941 63.0518 60.4277C65.1194 62.2612 66.1532 65.0115 66.1532 68.6786V80.7333ZM52.1675 84.1273C54.2741 84.1273 55.9126 83.1325 57.083 81.1429V75.6422H54.8008C52.6941 75.6422 51.1142 76.0129 50.0608 76.7541C49.0465 77.4953 48.5394 78.6462 48.5394 80.2066C48.5394 81.455 48.8515 82.4303 49.4757 83.1325C50.1389 83.7957 51.0361 84.1273 52.1675 84.1273ZM83.8891 57.6773C86.1127 57.6773 88.1999 58.0089 90.1504 58.6721C92.101 59.3353 93.8176 60.2716 95.3 61.481L91.906 66.689C89.3702 65.0896 86.8149 64.2898 84.2402 64.2898C83.0308 64.2898 82.0945 64.5044 81.4313 64.9335C80.8071 65.3236 80.495 65.8893 80.495 66.6305C80.495 67.2157 80.6316 67.7034 80.9047 68.0935C81.2168 68.4446 81.8214 68.8152 82.7187 69.2053C83.616 69.5954 85.0009 70.0636 86.8735 70.6097C90.1114 71.546 92.5107 72.7749 94.0711 74.2963C95.6706 75.7788 96.4704 77.8464 96.4704 80.4992C96.4704 82.6058 95.8657 84.4394 94.6563 85.9999C93.4469 87.5213 91.7889 88.6917 89.6823 89.5109C87.5757 90.3302 85.235 90.7398 82.6602 90.7398C80.0464 90.7398 77.6082 90.3302 75.3455 89.5109C73.1218 88.6917 71.2297 87.5603 69.6693 86.1169L74.1751 81.0844C76.7889 83.113 79.5393 84.1273 82.4261 84.1273C83.8305 84.1273 84.9229 83.8737 85.7031 83.3666C86.5224 82.8594 86.932 82.1377 86.932 81.2014C86.932 80.4602 86.7759 79.875 86.4638 79.4459C86.1517 79.0168 85.5471 78.6266 84.6498 78.2755C83.7525 77.8854 82.3286 77.4173 80.378 76.8711C77.2961 75.9738 74.9944 74.7255 73.4729 73.126C71.9515 71.5265 71.1907 69.5369 71.1907 67.1572C71.1907 65.3627 71.6979 63.7632 72.7122 62.3587C73.7655 60.9153 75.248 59.784 77.1595 58.9647C79.1101 58.1065 81.3533 57.6773 83.8891 57.6773ZM110.479 45.3301V89.745H101.234V46.3249L110.479 45.3301ZM129.673 58.6721L120.252 72.3067L130.434 89.745H120.018L110.772 72.7749L120.252 58.6721H129.673ZM144.178 57.6773C146.402 57.6773 148.489 58.0089 150.44 58.6721C152.39 59.3353 154.107 60.2716 155.589 61.481L152.195 66.689C149.659 65.0896 147.104 64.2898 144.529 64.2898C143.32 64.2898 142.384 64.5044 141.72 64.9335C141.096 65.3236 140.784 65.8893 140.784 66.6305C140.784 67.2157 140.921 67.7034 141.194 68.0935C141.506 68.4446 142.111 68.8152 143.008 69.2053C143.905 69.5954 145.29 70.0636 147.163 70.6097C150.401 71.546 152.8 72.7749 154.36 74.2963C155.96 75.7788 156.76 77.8464 156.76 80.4992C156.76 82.6058 156.155 84.4394 154.945 85.9999C153.736 87.5213 152.078 88.6917 149.971 89.5109C147.865 90.3302 145.524 90.7398 142.949 90.7398C140.336 90.7398 137.897 90.3302 135.635 89.5109C133.411 88.6917 131.519 87.5603 129.958 86.1169L134.464 81.0844C137.078 83.113 139.828 84.1273 142.715 84.1273C144.12 84.1273 145.212 83.8737 145.992 83.3666C146.812 82.8594 147.221 82.1377 147.221 81.2014C147.221 80.4602 147.065 79.875 146.753 79.4459C146.441 79.0168 145.836 78.6266 144.939 78.2755C144.042 77.8854 142.618 77.4173 140.667 76.8711C137.585 75.9738 135.284 74.7255 133.762 73.126C132.241 71.5265 131.48 69.5369 131.48 67.1572C131.48 65.3627 131.987 63.7632 133.001 62.3587C134.055 60.9153 135.537 59.784 137.449 58.9647C139.399 58.1065 141.642 57.6773 144.178 57.6773Z" fill="#232959"/>
<defs>
<linearGradient id="paint0_linear_10_418" x1="-124.575" y1="9.37964" x2="-21.7212" y2="152.225" gradientUnits="userSpaceOnUse">
<stop stop-color="#B955DD"/>
<stop offset="1" stop-color="#545FDD"/>
</linearGradient>
</defs>
</svg>
